<svg width="72" height="14" viewBox="0 0 72 14" fill="none" xmlns="http://www.w3.org/2000/svg">
<path d="M8.75817 4C8.38033 1.91193 6.70987 0.678977 4.66158 0.678977C2.05646 0.678977 0.167259 2.6875 0.167259 5.90909C0.167259 9.13068 2.05646 11.1392 4.66158 11.1392C6.70987 11.1392 8.38033 9.90625 8.75817 7.81818H7.52521C7.22692 9.23011 6.01385 9.9858 4.66158 9.9858C2.81214 9.9858 1.36044 8.55398 1.36044 5.90909C1.36044 3.2642 2.81214 1.83239 4.66158 1.83239C6.01385 1.83239 7.22692 2.58807 7.52521 4H8.75817ZM13.6937 11.1591C15.7619 11.1591 17.1539 9.58807 17.1539 7.22159C17.1539 4.83523 15.7619 3.2642 13.6937 3.2642C11.6255 3.2642 10.2335 4.83523 10.2335 7.22159C10.2335 9.58807 11.6255 11.1591 13.6937 11.1591ZM13.6937 10.1051C12.1227 10.1051 11.4068 8.75284 11.4068 7.22159C11.4068 5.69034 12.1227 4.31818 13.6937 4.31818C15.2647 4.31818 15.9806 5.69034 15.9806 7.22159C15.9806 8.75284 15.2647 10.1051 13.6937 10.1051ZM19.5055 3.36364H18.1532L20.5794 7.18182L18.1532 11H19.5055L21.335 8.03693L23.1646 11H24.5169L22.051 7.18182L24.5169 3.36364H23.1646L21.335 6.4858L19.5055 3.36364ZM26.1911 13.8636H27.3643V9.8267H27.4638C27.7223 10.2443 28.2195 11.1591 29.6911 11.1591C31.6001 11.1591 32.9325 9.62784 32.9325 7.2017C32.9325 4.79545 31.6001 3.2642 29.6712 3.2642C28.1797 3.2642 27.7223 4.17898 27.4638 4.5767H27.3246V3.36364H26.1911V13.8636ZM27.3445 7.18182C27.3445 5.47159 28.1001 4.31818 29.532 4.31818C31.0234 4.31818 31.7592 5.57102 31.7592 7.18182C31.7592 8.8125 31.0036 10.1051 29.532 10.1051C28.12 10.1051 27.3445 8.91193 27.3445 7.18182ZM36.9695 11.179C38.3018 11.179 38.9979 10.4631 39.2365 9.96591H39.2962V11H40.4695V5.96875C40.4695 3.54261 38.62 3.2642 37.6456 3.2642C36.4922 3.2642 35.1797 3.66193 34.5831 5.05398L35.6967 5.4517C35.9553 4.89489 36.5668 4.2983 37.6854 4.2983C38.7642 4.2983 39.2962 4.87003 39.2962 5.84943V5.8892C39.2962 6.45597 38.7195 6.40625 37.3274 6.58523C35.9105 6.76918 34.3643 7.08239 34.3643 8.83239C34.3643 10.3239 35.5178 11.179 36.9695 11.179ZM37.1484 10.125C36.2138 10.125 35.5376 9.70739 35.5376 8.89205C35.5376 7.99716 36.353 7.71875 37.2678 7.59943C37.7649 7.53977 39.0973 7.40057 39.2962 7.16193V8.2358C39.2962 9.19034 38.5405 10.125 37.1484 10.125ZM43.7843 3.36364H42.611V11H43.7843V7.73864H47.4434V11H48.6167V3.36364H47.4434V6.64489H43.7843V3.36364ZM51.9327 9.26989V3.36364H50.7594V11H52.1316L55.7907 5.09375V11H56.964V3.36364H55.6117L51.9327 9.26989ZM58.0739 4.45739H60.5994V11H61.7727V4.45739H64.2784V3.36364H58.0739V4.45739ZM67.1632 6.12784V3.36364H65.9899V11H69.1916C70.9814 11 71.9558 9.90625 71.9558 8.53409C71.9558 7.14205 70.9814 6.12784 69.1916 6.12784H67.1632ZM67.1632 7.22159H69.1916C70.1213 7.22159 70.7825 7.78835 70.7825 8.59375C70.7825 9.36435 70.1213 9.90625 69.1916 9.90625H67.1632V7.22159Z" fill="white"/>
</svg>
